<?xml version="1.0" standalone="no"?>
<!DOCTYPE svg PUBLIC "-//W3C//DTD SVG 20010904//EN"
 "http://www.w3.org/TR/2001/REC-SVG-20010904/DTD/svg10.dtd">
<svg version="1.0" xmlns="http://www.w3.org/2000/svg"
 width="2560.000000pt" height="1536.000000pt" viewBox="0 0 2560.000000 1536.000000"
 preserveAspectRatio="xMidYMid meet">

<g transform="translate(0.000000,1536.000000) scale(0.100000,-0.100000)"
fill="#000000" stroke="none">
<path d="M0 14762 l1 -597 3272 -1963 3272 -1962 989 2 989 3 -4261 2557
-4262 2557 0 -597z"/>
<path d="M3006 15351 c5 -5 1620 -975 3589 -2156 1969 -1181 3595 -2156 3612
-2167 l33 -20 0 2176 0 2176 -3622 0 c-2071 0 -3618 -4 -3612 -9z"/>
<path d="M11268 12288 l-3 -3073 -5632 -3 -5633 -2 0 -1530 0 -1530 5633 -2
5632 -3 3 -3072 2 -3073 1530 0 1530 0 2 3073 3 3072 5633 3 5632 2 0 1530 0
1530 -5632 2 -5633 3 -3 3073 -2 3072 -1530 0 -1530 0 -2 -3072z"/>
<path d="M15360 13184 l0 -2176 43 25 c23 14 1655 993 3627 2176 l3585 2151
-3627 0 -3628 0 0 -2176z"/>
<path d="M19485 12885 l-4120 -2474 -3 -85 -3 -86 853 0 853 0 4245 2547
c2335 1400 4254 2552 4265 2560 16 11 -141 13 -975 12 l-995 -1 -4120 -2473z"/>
<path d="M0 11901 l0 -1661 2772 0 c2319 0 2769 2 2753 13 -42 28 -5494 3297
-5509 3303 -15 6 -16 -141 -16 -1655z"/>
<path d="M22820 11900 l-2765 -1660 2773 0 2772 0 0 1660 c0 913 -3 1660 -7
1660 -5 -1 -1252 -748 -2773 -1660z"/>
<path d="M0 3455 l0 -1664 2768 1660 c1522 914 2769 1663 2771 1665 2 2 -1243
4 -2767 4 l-2772 0 0 -1665z"/>
<path d="M4272 2562 l-4262 -2557 989 -3 989 -2 4126 2475 4126 2476 0 85 0
84 -852 0 -853 0 -4263 -2558z"/>
<path d="M17086 5112 c5 -5 162 -100 349 -212 187 -112 459 -276 605 -363 146
-88 279 -167 295 -177 17 -9 1658 -994 3648 -2188 l3617 -2171 0 597 -1 597
-3272 1963 -3272 1962 -989 0 c-545 0 -986 -4 -980 -8z"/>
<path d="M20061 5116 c9 -8 5514 -3309 5526 -3313 11 -4 13 297 13 1656 l0
1661 -2772 0 c-1524 0 -2769 -2 -2767 -4z"/>
<path d="M6616 2177 l-3619 -2172 3618 -3 c1990 -1 3620 -1 3622 1 2 2 2 981
1 2174 l-3 2171 -3619 -2171z"/>
<path d="M15360 2176 l0 -2176 3628 0 3627 0 -3585 2151 c-1972 1183 -3604
2162 -3627 2176 l-43 25 0 -2176z"/>
</g>
</svg>
